<svg width="44" height="28" viewBox="0 0 44 28" fill="none" xmlns="http://www.w3.org/2000/svg">
<path d="M32.1642 27.6926C28.9342 27.6726 26.1842 26.4126 23.6942 24.4426C23.5642 24.3426 23.4642 24.1926 23.3242 24.1026C22.6842 23.6926 21.9942 22.9426 21.3942 23.0026C20.7642 23.0626 20.2342 23.9426 19.6442 24.4326C17.5842 26.1326 15.2442 27.2726 12.6042 27.6726C10.9342 27.9226 9.25418 27.6926 7.65418 27.1526C4.98418 26.2426 2.71422 24.7026 0.754217 22.6926C-0.305783 21.6126 -0.235778 21.3926 0.884222 20.3326C2.72422 18.5926 4.70418 17.1126 7.09418 16.2126C7.73418 15.9726 7.8242 15.6126 7.5442 14.9526C6.5042 12.5326 6.03417 9.99262 6.08417 7.35262C6.10417 6.38262 6.50419 5.8826 7.47419 5.9326C10.0042 6.0726 12.5342 6.21261 14.8842 7.34261C15.7342 7.75261 16.0942 7.50262 16.4742 6.79262C17.3842 5.11262 18.3642 3.47262 19.4142 1.88262C19.8642 1.20262 20.5242 0.652615 21.1642 0.132615C21.3742 -0.0373847 21.9442 -0.0473944 22.1342 0.122606C24.1042 1.78261 25.6442 3.79262 26.6542 6.17262C27.3242 7.75262 27.3442 7.6826 28.9842 7.1526C30.5142 6.6526 32.1342 6.43261 33.7242 6.12261C34.4142 5.99261 35.1242 5.92262 35.8142 5.92262C36.7942 5.92262 37.2242 6.3726 37.2242 7.3326C37.2042 9.9826 36.8942 12.5926 35.7342 15.0226C35.3342 15.8626 35.8742 16.0626 36.4842 16.3026C39.0342 17.3126 41.1442 18.9526 43.0042 20.9426C43.4342 21.4026 43.4442 21.7726 43.0042 22.2426C40.3942 24.9926 37.3642 27.0026 33.5642 27.6826C33.1242 27.7726 32.6342 27.6926 32.1642 27.6926ZM26.2642 10.9526C26.5342 7.91262 24.0442 4.23262 22.2042 2.17262C21.6142 1.51262 21.2242 1.97261 20.9142 2.41261C19.9242 3.82261 18.8942 5.2126 18.0642 6.7126C17.0042 8.6126 16.7342 10.7826 17.1542 12.8626C17.7042 15.5726 19.2442 17.8726 21.0842 19.9226C21.2642 20.1226 21.9542 19.9626 22.3442 19.8126C22.6142 19.7126 22.7742 19.3226 22.9842 19.0626C24.7842 16.7126 26.3342 14.2526 26.2642 10.9526ZM19.4542 20.7326C19.2242 20.2926 19.0842 19.9626 18.9042 19.6626C18.1842 18.5126 17.3542 17.4126 16.7442 16.2026C15.8542 14.4326 15.2842 12.5126 15.5142 10.5226C15.6242 9.6126 15.3942 9.18261 14.6842 8.91261C12.6942 8.13261 10.6842 7.5126 8.50422 7.5226C7.63422 7.5226 7.40419 7.98259 7.53419 8.64259C7.87419 10.3626 8.19419 12.0926 8.72419 13.7526C10.2542 18.5726 14.8842 20.4526 19.4542 20.7326ZM23.8242 20.7126C24.2442 20.7526 24.4542 20.8226 24.6342 20.7826C26.2042 20.3826 27.8442 20.1526 29.3142 19.5126C31.4642 18.5826 33.1642 17.0526 34.2142 14.8626C35.1842 12.8526 35.5242 10.7026 35.8042 8.54262C35.8842 7.96262 35.6842 7.53262 34.9142 7.54262C32.7142 7.56262 30.6442 8.10261 28.6242 8.91261C28.0442 9.15261 27.8342 9.54261 27.8642 10.1626C28.0242 13.4726 26.8842 16.3526 24.9242 18.9626C24.5442 19.4826 24.2342 20.0526 23.8242 20.7126ZM19.3942 22.3326C19.1942 22.2626 19.1642 22.2426 19.1342 22.2426C15.2642 21.9626 11.7942 20.8026 9.18421 17.7226C8.98421 17.4926 8.43422 17.3626 8.13422 17.4526C5.90422 18.1426 4.07416 19.5226 2.32416 21.0026C1.85416 21.4026 1.80419 21.8526 2.41419 22.2226C2.64419 22.3626 2.82419 22.5626 3.03419 22.7326C5.78419 24.9126 8.68421 26.5926 12.4342 26.1226C15.0342 25.7926 17.0542 24.4426 19.0642 22.9726C19.2142 22.8526 19.2642 22.5826 19.3942 22.3326ZM23.9742 22.5626C24.1742 22.7826 24.4242 23.1726 24.7742 23.4026C25.6842 23.9926 26.6242 24.5526 27.5842 25.0626C30.6242 26.6626 33.7142 26.6226 36.7142 25.0426C38.1342 24.2926 39.4042 23.2426 40.7242 22.3026C41.5442 21.7226 41.5542 21.3026 40.7342 20.7226C39.3542 19.7626 37.9442 18.8326 36.5242 17.9326C35.4042 17.2226 34.4842 17.2026 34.0242 17.8426C32.9142 19.3826 31.3842 20.3726 29.6342 20.9626C27.8142 21.5826 25.9542 22.0126 23.9742 22.5626Z" fill="white"/>
<path d="M12.6046 2.58329C12.5946 1.76329 13.2346 1.0233 13.9446 1.0333C14.7546 1.0333 15.4646 1.75331 15.4546 2.57331C15.4446 3.34331 14.7446 4.0933 14.0246 4.0933C13.3046 4.0733 12.6046 3.34329 12.6046 2.58329Z" fill="white"/>
<path d="M1.80382 14.1426C1.81382 13.3826 2.50381 12.6526 3.22381 12.6426C3.97381 12.6426 4.6538 13.4026 4.6538 14.2626C4.6538 14.9826 3.87382 15.7426 3.17382 15.6926C2.44382 15.6526 1.79382 14.9126 1.80382 14.1426Z" fill="white"/>
<path d="M30.5239 2.54321C30.5239 3.31321 29.854 4.06319 29.134 4.08319C28.414 4.10319 27.6839 3.35321 27.6739 2.57321C27.6639 1.79321 28.3639 1.0332 29.0939 1.0332C29.8139 1.0332 30.5239 1.77321 30.5239 2.54321Z" fill="white"/>
<path d="M38.6739 14.1327C38.6839 13.3627 39.324 12.6527 40.004 12.6427C40.824 12.6327 41.5439 13.3727 41.5339 14.1927C41.5239 14.9327 40.754 15.7227 40.064 15.6927C39.334 15.6627 38.6639 14.9127 38.6739 14.1327Z" fill="white"/>
</svg>
